# xmcd
#
# Track frame offsets:
#	150
#	25534
#	45038
#	69941
#	99065
#	121810
#	143383
#	164606
#	193911
#	219054
#
# Disc length: 3350 seconds
#
# Revision: 0
# Processed by: cddbd v1.5.2PL0 Copyright (c) Steve Scherf et al.
# Submitted via: EasyCDDAExtractor 15.3.0.1
#
DISCID=6d0d140a
DTITLE=Ha Phuong - TGNT - Tinh Xua
DYEAR=2000
DGENRE=Tinh Ca Que Huong
TTITLE0=Tinh Xua
TTITLE1=Tinh Ta Ly Qua Cau
TTITLE2=LK: To Hong and Thuyen Hoa
TTITLE3=Hoang Hon Mau Tim
TTITLE4=Dong Song and Noi Nho
TTITLE5=Chuyen Dem Mua
TTITLE6=Huong Lua
TTITLE7=Mong Cho
TTITLE8=Hoa Tim Doi Cho
TTITLE9=Chuyen Nguoi Dan Ao
EXTD=
EXTT0=
EXTT1=
EXTT2=
EXTT3=
EXTT4=
EXTT5=
EXTT6=
EXTT7=
EXTT8=
EXTT9=
PLAYORDER=
